<?xml version="1.0" encoding="UTF-8"?>
<svg width="256" height="256" viewBox="0 0 256 256" xmlns="http://www.w3.org/2000/svg">
  <!-- Background circle with gradient -->
  <defs>
    <radialGradient id="bgGradient" cx="50%" cy="30%" r="70%">
      <stop offset="0%" style="stop-color:#4A90E2;stop-opacity:1" />
      <stop offset="100%" style="stop-color:#2E5C99;stop-opacity:1" />
    </radialGradient>
    <linearGradient id="planeGradient" x1="0%" y1="0%" x2="100%" y2="100%">
      <stop offset="0%" style="stop-color:#FFFFFF;stop-opacity:1" />
      <stop offset="100%" style="stop-color:#E0E0E0;stop-opacity:1" />
    </linearGradient>
    <linearGradient id="wrenchGradient" x1="0%" y1="0%" x2="100%" y2="100%">
      <stop offset="0%" style="stop-color:#FFD700;stop-opacity:1" />
      <stop offset="100%" style="stop-color:#FFA500;stop-opacity:1" />
    </linearGradient>
  </defs>
  
  <!-- Background circle -->
  <circle cx="128" cy="128" r="120" fill="url(#bgGradient)" stroke="#1A4480" stroke-width="4"/>
  
  <!-- Airplane body -->
  <g transform="translate(128,128) rotate(-15)">
    <!-- Fuselage -->
    <ellipse cx="0" cy="0" rx="50" ry="12" fill="url(#planeGradient)" stroke="#B0B0B0" stroke-width="2"/>
    
    <!-- Wings -->
    <ellipse cx="-10" cy="0" rx="15" ry="35" fill="url(#planeGradient)" stroke="#B0B0B0" stroke-width="2"/>
    
    <!-- Tail -->
    <polygon points="-35,-8 -45,-15 -45,-5 -45,5 -45,15 -35,8" fill="url(#planeGradient)" stroke="#B0B0B0" stroke-width="2"/>
    
    <!-- Nose -->
    <ellipse cx="35" cy="0" rx="15" ry="8" fill="url(#planeGradient)" stroke="#B0B0B0" stroke-width="2"/>
    
    <!-- Propeller -->
    <g transform="translate(45,0)">
      <circle cx="0" cy="0" r="3" fill="#666666"/>
      <ellipse cx="0" cy="0" rx="2" ry="12" fill="#333333" opacity="0.7"/>
      <ellipse cx="0" cy="0" rx="12" ry="2" fill="#333333" opacity="0.7"/>
    </g>
    
    <!-- Wing details -->
    <line x1="-25" y1="-25" x2="-25" y2="25" stroke="#B0B0B0" stroke-width="1"/>
    <line x1="5" y1="-25" x2="5" y2="25" stroke="#B0B0B0" stroke-width="1"/>
    
    <!-- Window -->
    <ellipse cx="15" cy="-3" rx="8" ry="4" fill="#87CEEB" stroke="#4682B4" stroke-width="1" opacity="0.8"/>
  </g>
  
  <!-- Wrench -->
  <g transform="translate(180,180) rotate(45)">
    <!-- Wrench handle -->
    <rect x="-20" y="-3" width="30" height="6" rx="3" fill="url(#wrenchGradient)" stroke="#CC8400" stroke-width="1"/>
    
    <!-- Wrench head -->
    <rect x="8" y="-8" width="12" height="16" rx="2" fill="url(#wrenchGradient)" stroke="#CC8400" stroke-width="1"/>
    
    <!-- Wrench jaws -->
    <rect x="18" y="-6" width="4" height="4" fill="url(#wrenchGradient)" stroke="#CC8400" stroke-width="1"/>
    <rect x="18" y="2" width="4" height="4" fill="url(#wrenchGradient)" stroke="#CC8400" stroke-width="1"/>
    
    <!-- Wrench opening -->
    <rect x="20" y="-2" width="2" height="4" fill="none"/>
    
    <!-- Handle grip lines -->
    <line x1="-15" y1="-1" x2="-15" y2="1" stroke="#CC8400" stroke-width="0.5"/>
    <line x1="-10" y1="-1" x2="-10" y2="1" stroke="#CC8400" stroke-width="0.5"/>
    <line x1="-5" y1="-1" x2="-5" y2="1" stroke="#CC8400" stroke-width="0.5"/>
    <line x1="0" y1="-1" x2="0" y2="1" stroke="#CC8400" stroke-width="0.5"/>
  </g>
  
  <!-- Motion lines behind plane for dynamic effect -->
  <g opacity="0.3">
    <line x1="40" y1="100" x2="80" y2="105" stroke="#FFFFFF" stroke-width="2" stroke-linecap="round"/>
    <line x1="45" y1="120" x2="75" y2="125" stroke="#FFFFFF" stroke-width="2" stroke-linecap="round"/>
    <line x1="50" y1="140" x2="85" y2="145" stroke="#FFFFFF" stroke-width="2" stroke-linecap="round"/>
  </g>
  
  <!-- Small highlights for 3D effect -->
  <ellipse cx="100" cy="80" rx="15" ry="8" fill="#FFFFFF" opacity="0.3"/>
</svg>
